<svg width="404" height="55" viewBox="0 0 404 55" fill="none" xmlns="http://www.w3.org/2000/svg">
<path d="M24.2457 48.4112C37.636 48.4112 48.4912 37.5739 48.4912 24.2057C48.4912 10.8372 37.636 0 24.2457 0C10.8551 0 0 10.8372 0 24.2057C0 37.5739 10.8551 48.4112 24.2457 48.4112Z" fill="#FC8001"/>
<path d="M24.2905 1.34698C13.1038 1.34698 4.03064 10.4051 4.03064 21.5735C4.03064 22.6623 4.12058 23.7341 4.2836 24.7725C6.90324 17.9424 14.0594 13.0317 22.4805 13.0317C29.5129 13.0317 35.6629 16.4551 39.0246 21.5623C39.0471 21.5623 39.064 21.5623 39.0865 21.5623C41.2619 21.5623 43.0946 22.2526 44.4549 23.4312C44.5112 22.8194 44.5449 22.1965 44.5449 21.5679C44.5449 10.3995 35.4774 1.34698 24.2905 1.34698Z" fill="#FDCC01"/>
<path d="M44.4607 23.4311C43.0946 22.247 41.2677 21.5623 39.0921 21.5623C39.0696 21.5623 39.0528 21.5623 39.0303 21.5623C33.0713 21.596 26.7978 26.7648 25.0046 33.1402C24.0488 36.5358 24.5547 39.5888 26.1344 41.7102C25.5273 41.7663 24.9146 41.8 24.2905 41.8C14.1943 41.8 5.8239 34.4256 4.28923 24.7725C3.59777 26.5739 3.22113 28.5047 3.22113 30.5195C3.22113 35.4695 5.48661 39.9311 9.12935 43.1133C11.378 44.9036 13.947 46.3066 16.7409 47.2159C19.1075 47.9847 21.6316 48.4057 24.2513 48.4057C31.5198 48.4057 38.0352 45.2066 42.4762 40.15C44.0053 38.4047 45.2925 36.446 46.2764 34.3133C46.4226 33.9261 46.5518 33.5388 46.6586 33.1402C47.7999 29.0771 46.844 25.4964 44.4607 23.4311Z" fill="#FD0024"/>
<path d="M176.072 22.2919V42.2267C176.072 42.4286 175.909 42.5913 175.706 42.5913H171.04C170.838 42.5913 170.675 42.4286 170.675 42.2267V24.0373C170.675 18.2848 167.516 14.895 162.08 14.895C156.908 14.895 152.86 18.4812 152.86 24.1663V42.2267C152.86 42.4286 152.697 42.5913 152.495 42.5913H147.829C147.627 42.5913 147.464 42.4286 147.464 42.2267V24.0373C147.464 18.2848 144.304 14.895 138.868 14.895C133.831 14.895 129.615 18.3465 129.615 24.1663V42.2267C129.615 42.4286 129.452 42.5913 129.25 42.5913H124.618C124.415 42.5913 124.253 42.4286 124.253 42.2267V10.8205C124.253 10.6184 124.415 10.4557 124.618 10.4557H129.216C129.419 10.4557 129.582 10.6184 129.582 10.8205V13.4975C129.582 13.8342 129.998 13.9914 130.217 13.7388C132.786 10.8261 136.49 9.79343 139.824 9.79343C144.872 9.79343 148.908 11.9373 151.073 15.5235C151.219 15.7648 151.556 15.7648 151.702 15.5235C154.339 11.2189 158.965 9.79343 163.047 9.79343C170.771 9.79904 176.072 14.7939 176.072 22.2919Z" fill="white"/>
<path d="M213.904 26.0746C213.904 35.5087 207.024 42.35 198.26 42.35C193.723 42.35 190.272 40.7449 187.854 38.2138C187.63 37.9782 187.23 38.1464 187.23 38.4721V54.4782C187.23 54.6801 187.067 54.8428 186.865 54.8428H182.233C182.03 54.8428 181.867 54.6801 181.867 54.4782V10.8261C181.867 10.624 182.03 10.4613 182.233 10.4613H186.865C187.067 10.4613 187.23 10.624 187.23 10.8261V13.6771C187.23 14.0026 187.63 14.171 187.854 13.9353C190.277 11.4098 193.729 9.79904 198.26 9.79904C207.018 9.79904 213.904 16.6404 213.904 26.0746ZM186.899 26.0746C186.899 32.4837 191.312 37.3214 197.636 37.3214C204.123 37.3214 208.373 32.2928 208.373 26.0746C208.373 19.8618 204.027 14.8613 197.636 14.8613C191.312 14.8613 186.899 19.6934 186.899 26.0746Z" fill="white"/>
<path d="M274.745 17.0556C274.644 17.2408 274.415 17.2969 274.236 17.1846C272.172 15.8938 268.382 14.502 264.482 14.502C260.197 14.502 257.433 16.3091 257.433 19.1377C257.433 21.6352 259.703 22.7857 263.493 23.246L267.117 23.7062C273.767 24.5928 277.693 27.3877 277.693 32.5511C277.693 38.5 272.358 42.35 263.83 42.35C260.063 42.35 255.004 41.4689 250.934 38.5449C250.776 38.4326 250.737 38.208 250.838 38.0453L252.945 34.6667C253.058 34.4873 253.301 34.4424 253.476 34.5657C255.78 36.2663 258.861 37.6468 263.862 37.6468C269.002 37.6468 272.161 35.9689 272.161 32.882C272.161 30.5812 270.12 29.1331 265.869 28.6055L262.249 28.179C255.234 27.3261 251.843 24.1663 251.843 19.4352C251.843 13.4525 256.82 9.83261 264.425 9.83261C269.215 9.83261 273.6 11.0673 276.623 13.0316C276.786 13.1382 276.836 13.3515 276.742 13.5199L274.745 17.0556Z" fill="white"/>
<path d="M302.213 17.0556C302.112 17.2408 301.882 17.2969 301.701 17.1846C299.637 15.8938 295.85 14.502 291.947 14.502C287.664 14.502 284.898 16.3091 284.898 19.1377C284.898 21.6352 287.171 22.7857 290.958 23.246L294.585 23.7062C301.235 24.5928 305.158 27.3877 305.158 32.5511C305.158 38.5 299.823 42.35 291.296 42.35C287.529 42.35 282.469 41.4689 278.4 38.5449C278.244 38.4326 278.205 38.208 278.306 38.0453L280.413 34.6667C280.525 34.4873 280.766 34.4424 280.941 34.5657C283.245 36.2663 286.326 37.6468 291.33 37.6468C296.467 37.6468 299.628 35.9689 299.628 32.882C299.628 30.5812 297.587 29.1331 293.336 28.6055L289.716 28.179C282.701 27.3261 279.311 24.1663 279.311 19.4352C279.311 13.4525 284.285 9.83261 291.892 9.83261C296.681 9.83261 301.067 11.0673 304.09 13.0316C304.253 13.1382 304.304 13.3515 304.21 13.5199L302.213 17.0556Z" fill="white"/>
<path d="M81.1128 34.1169C80.9724 33.9765 80.7474 33.9765 80.6069 34.1169C75.9862 38.4775 69.4483 38.354 65.1085 34.0214C60.6617 29.5822 60.6392 22.9092 65.2715 18.2791C69.8192 13.7388 76.3121 13.6995 80.7587 17.8919C80.9049 18.0266 81.1241 18.0322 81.2646 17.8919L84.3341 14.8276C84.4803 14.6816 84.4803 14.4403 84.3283 14.2944C77.6277 7.86278 67.863 7.93011 61.3813 14.3954C54.8154 20.9505 54.8379 30.8786 61.5443 37.5739C68.1552 44.1739 77.9311 44.3144 84.5028 38.0341C84.6545 37.8938 84.6545 37.647 84.5083 37.501L81.1128 34.1169Z" fill="white"/>
<path d="M92.5415 26.0634C92.7382 26.0634 92.8957 25.9062 92.9012 25.704C93.0812 19.3567 97.7919 14.8332 103.925 14.8332C110.216 14.8332 114.96 19.5363 114.96 26.0801C114.96 32.5007 110.395 37.1138 104.285 37.2877C104.088 37.2934 103.925 37.4506 103.925 37.647V41.9797C103.925 42.1873 104.099 42.3557 104.302 42.35C113.594 42.1648 120.458 35.2282 120.458 26.0801C120.458 16.8087 113.409 9.80463 103.925 9.80463C94.5764 9.80463 87.5608 16.6067 87.3641 25.6816C87.3584 25.8894 87.5326 26.0634 87.735 26.0634H92.5415Z" fill="white"/>
<path d="M247.25 10.4556H242.62C242.416 10.4556 242.253 10.6183 242.253 10.8204V13.6096C239.404 11.0617 235.61 9.552 231.327 9.552C222.039 9.552 215.023 16.5898 215.023 26.0576C215.023 35.3909 221.836 42.3949 230.932 42.5913C231.141 42.5968 231.315 42.4229 231.315 42.221V37.4279C231.315 37.2316 231.157 37.0743 230.955 37.0688C224.597 36.8892 220.066 32.1862 220.066 26.0576C220.066 19.7775 224.777 15.0408 231.331 15.0408C236.918 15.0408 242.26 18.9413 242.26 23.3917V27.9771V42.221C242.26 42.4229 242.423 42.5856 242.625 42.5856H247.257C247.459 42.5856 247.622 42.4229 247.622 42.221V24.1606V10.8148C247.622 10.624 247.455 10.4556 247.25 10.4556Z" fill="white"/>
<path d="M107.405 29.4307L108.973 23.5939C109.31 22.3424 108.164 21.1974 106.91 21.5342L101.064 23.1C99.81 23.4366 99.3883 24.997 100.31 25.9174L104.588 30.1884C105.505 31.0975 107.073 30.6822 107.405 29.4307Z" fill="#FDCC01"/>
<path d="M313.118 42.6529C315.292 42.6529 317.053 40.894 317.053 38.7244C317.053 36.5547 315.292 34.7958 313.118 34.7958C310.945 34.7958 309.183 36.5547 309.183 38.7244C309.183 40.894 310.945 42.6529 313.118 42.6529Z" fill="white"/>
<path d="M401.023 31.0246C397.217 31.0246 395.468 29.0771 395.468 25.2775V1.89694H383.809V19.2612C381.162 13.5816 375.387 9.64184 368.694 9.64184C361.998 9.64184 356.229 13.576 353.576 19.2612V9.99542H342.064V26.3326C342.064 29.279 340.512 31.2771 337.909 31.2771C335.306 31.2771 333.754 29.279 333.754 26.3326V9.99542H322.096V26.4841C322.096 36.575 328.303 42.9225 337.909 42.9225C345.622 42.9225 351.131 38.646 352.935 31.7261C355.189 38.242 361.392 42.9225 368.687 42.9225C375.888 42.9225 382.021 38.3652 384.349 31.9841C386.07 39.3924 391.685 42.6699 399.212 42.6699H402.164V31.0301H401.023V31.0246ZM368.694 31.2771C365.939 31.2771 363.689 29.0265 363.689 26.2822C363.689 23.5322 365.944 21.2872 368.694 21.2872C371.448 21.2872 373.695 23.5377 373.695 26.2822C373.695 29.0265 371.441 31.2771 368.694 31.2771Z" fill="white"/>
</svg>
