<svg width="423" height="455" viewBox="0 0 423 455" fill="none" xmlns="http://www.w3.org/2000/svg">
<path d="M412.919 26.6055H172.182C166.729 26.6055 162.308 31.0232 162.308 36.4727V444.36C162.308 449.811 166.729 454.227 172.182 454.227H412.919C418.373 454.227 422.793 449.811 422.793 444.36V36.4727C422.793 31.0232 418.373 26.6055 412.919 26.6055Z" fill="#FFDD00"/>
<path opacity="0.2" d="M412.919 26.6055H172.182C166.729 26.6055 162.308 31.0232 162.308 36.4727V444.36C162.308 449.811 166.729 454.227 172.182 454.227H412.919C418.373 454.227 422.793 449.811 422.793 444.36V36.4727C422.793 31.0232 418.373 26.6055 412.919 26.6055Z" fill="white"/>
<path d="M407.854 26.6055H167.118C161.664 26.6055 157.244 31.0232 157.244 36.4727V444.36C157.244 449.811 161.664 454.227 167.118 454.227H407.854C413.308 454.227 417.728 449.811 417.728 444.36V36.4727C417.728 31.0232 413.308 26.6055 407.854 26.6055Z" fill="#FFDD00"/>
<path opacity="0.6" d="M407.854 26.6055H167.118C161.664 26.6055 157.244 31.0232 157.244 36.4727V444.36C157.244 449.811 161.664 454.227 167.118 454.227H407.854C413.308 454.227 417.728 449.811 417.728 444.36V36.4727C417.728 31.0232 413.308 26.6055 407.854 26.6055Z" fill="white"/>
<path d="M395.04 216.807H179.938C177.904 216.807 176.255 218.455 176.255 220.487V431.889C176.255 433.921 177.904 435.57 179.938 435.57H395.04C397.073 435.57 398.723 433.921 398.723 431.889V220.487C398.723 218.455 397.073 216.807 395.04 216.807Z" fill="white"/>
<path d="M362.149 170.464H210.868C209.685 170.464 208.726 171.423 208.726 172.605V178.032C208.726 179.214 209.685 180.173 210.868 180.173H362.149C363.33 180.173 364.292 179.214 364.292 178.032V172.605C364.292 171.423 363.33 170.464 362.149 170.464Z" fill="#FFDD00"/>
<path d="M348.799 194.986H224.224C222.782 194.986 221.613 196.155 221.613 197.596V197.778C221.613 199.219 222.782 200.388 224.224 200.388H348.799C350.242 200.388 351.411 199.219 351.411 197.778V197.596C351.411 196.155 350.242 194.986 348.799 194.986Z" fill="white"/>
<path d="M365.686 238.196H249.999C248.661 238.196 247.576 239.28 247.576 240.617V240.794C247.576 242.131 248.661 243.215 249.999 243.215H365.686C367.025 243.215 368.109 242.131 368.109 240.794V240.617C368.109 239.28 367.025 238.196 365.686 238.196Z" fill="#343127"/>
<path d="M304.013 256.933H250.084C248.699 256.933 247.576 258.055 247.576 259.439V259.445C247.576 260.829 248.699 261.951 250.084 261.951H304.013C305.398 261.951 306.521 260.829 306.521 259.445V259.439C306.521 258.055 305.398 256.933 304.013 256.933Z" fill="#343127"/>
<path d="M365.686 288.602H249.999C248.661 288.602 247.576 289.687 247.576 291.024V291.2C247.576 292.537 248.661 293.621 249.999 293.621H365.686C367.025 293.621 368.109 292.537 368.109 291.2V291.024C368.109 289.687 367.025 288.602 365.686 288.602Z" fill="#343127"/>
<path d="M304.013 307.339H250.084C248.699 307.339 247.576 308.461 247.576 309.846V309.852C247.576 311.236 248.699 312.358 250.084 312.358H304.013C305.398 312.358 306.521 311.236 306.521 309.852V309.846C306.521 308.461 305.398 307.339 304.013 307.339Z" fill="#343127"/>
<path d="M365.686 339.009H249.999C248.661 339.009 247.576 340.093 247.576 341.43V341.607C247.576 342.944 248.661 344.028 249.999 344.028H365.686C367.025 344.028 368.109 342.944 368.109 341.607V341.43C368.109 340.093 367.025 339.009 365.686 339.009Z" fill="#343127"/>
<path d="M304.013 357.746H250.084C248.699 357.746 247.576 358.868 247.576 360.252V360.258C247.576 361.642 248.699 362.764 250.084 362.764H304.013C305.398 362.764 306.521 361.642 306.521 360.258V360.252C306.521 358.868 305.398 357.746 304.013 357.746Z" fill="#343127"/>
<path d="M365.686 389.415H249.999C248.661 389.415 247.576 390.499 247.576 391.837V392.013C247.576 393.35 248.661 394.434 249.999 394.434H365.686C367.025 394.434 368.109 393.35 368.109 392.013V391.837C368.109 390.499 367.025 389.415 365.686 389.415Z" fill="#343127"/>
<path d="M304.013 408.152H250.084C248.699 408.152 247.576 409.275 247.576 410.659V410.665C247.576 412.049 248.699 413.171 250.084 413.171H304.013C305.398 413.171 306.521 412.049 306.521 410.665V410.659C306.521 409.275 305.398 408.152 304.013 408.152Z" fill="#343127"/>
<path d="M287.486 153.972C316.091 153.972 339.278 130.8 339.278 102.215C339.278 73.6309 316.091 50.4583 287.486 50.4583C258.882 50.4583 235.693 73.6309 235.693 102.215C235.693 130.8 258.882 153.972 287.486 153.972Z" fill="#FFDD00"/>
<path d="M308.116 82.0003V94.8119L300.988 95.3289L302.047 86.3317L308.116 82.0003Z" fill="#181A24"/>
<path d="M244.423 130.983C249.397 138.42 256.214 144.441 264.211 148.461C272.207 152.481 281.109 154.361 290.049 153.918C298.989 153.476 307.662 150.726 315.222 145.937C322.781 141.147 328.972 134.482 333.185 126.591C332.558 126.414 331.924 126.28 331.279 126.19L305.456 122.807L275.907 122.01L253.097 125.819C249.661 126.395 246.566 128.237 244.423 130.983Z" fill="#343127"/>
<path d="M305.456 122.801C305.456 122.929 308.378 123.087 308.39 123.209C308.402 123.33 308.39 123.58 308.39 123.75C308.39 129.225 300.434 133.666 290.627 133.666C280.82 133.666 272.863 129.225 272.863 123.75C272.863 123.341 272.909 122.933 272.997 122.534C273.04 122.363 275.828 122.193 275.889 122.023L305.456 122.801Z" fill="white"/>
<path d="M276.09 90.3953C276.09 90.3953 302.205 74.0251 303.228 94.0453L302.473 98.912L304.555 123.726C305.322 133.283 275.907 133.66 275.907 123.118L277.575 109.972C277.225 108.462 277.053 106.916 277.064 105.366C276.79 97.525 276.09 90.3953 276.09 90.3953Z" fill="#FC9D9D"/>
<path d="M273.783 89.6167C278.661 89.6167 282.616 85.6649 282.616 80.7897C282.616 75.9146 278.661 71.9628 273.783 71.9628C268.904 71.9628 264.95 75.9146 264.95 80.7897C264.95 85.6649 268.904 89.6167 273.783 89.6167Z" fill="#181A24"/>
<path d="M273.137 76.2698C273.137 76.2698 263.866 115.167 283.839 117.776C301.116 120.076 303.045 93.1511 303.045 93.1511L302.211 75.6919L273.137 76.2698Z" fill="#FC9D9D"/>
<path d="M299.807 88.9536C299.929 94.7327 299.807 100.123 298.723 103.468C298.181 105.184 297.061 106.772 293.622 104.843C280.686 97.5919 271.792 104.332 271.792 104.332C271.792 104.332 273.089 114.99 281.916 117.302C290.743 119.614 302.242 114.163 302.199 102.094C302.199 100.615 303.021 92.0074 301.81 87.6517C300.592 83.1987 299.107 83.0162 299.107 83.0162L299.807 88.9536Z" fill="#181A24"/>
<path d="M282.457 59.8083C287.327 59.8083 291.589 61.8341 293.939 64.8818C294.539 65.6161 295.324 66.1782 296.212 66.5116C297.1 66.8449 298.062 66.9374 298.997 66.7798C299.568 66.7598 300.139 66.7762 300.708 66.8285C316.31 67.9174 314.1 91.2227 299.989 89.3368C297.013 88.9353 294.34 86.8366 292.843 83.4847C292.356 82.3757 291.485 81.479 290.391 80.9589C289.297 80.4381 288.051 80.3286 286.883 80.6498C285.442 81.0507 283.953 81.2557 282.457 81.2582C274.994 81.2582 268.943 76.4645 268.943 70.5454C268.943 64.6263 274.994 59.8083 282.457 59.8083Z" fill="#181A24"/>
<path d="M273.016 79.4028C273.792 79.9162 274.606 80.3701 275.451 80.7594C275.5 80.7819 275.554 80.7941 275.608 80.7959C275.663 80.7977 275.717 80.7886 275.767 80.7697C275.818 80.7503 275.865 80.7211 275.905 80.684C275.944 80.6469 275.976 80.6024 275.999 80.5526C276.084 80.3031 276.041 80.0902 275.792 80.0051C275.792 80.0051 273.472 78.6302 273.253 78.4842C272.6 77.9793 271.989 77.4214 271.427 76.8174C271.395 76.7687 271.353 76.7273 271.304 76.6963C271.255 76.6647 271.2 76.6446 271.142 76.6367C271.084 76.6282 271.026 76.633 270.97 76.6495C270.914 76.6659 270.862 76.6939 270.818 76.7322C270.77 76.7645 270.729 76.807 270.699 76.8557C270.668 76.905 270.648 76.9603 270.64 77.0175C270.632 77.0747 270.636 77.1331 270.652 77.1891C270.668 77.2444 270.696 77.2961 270.733 77.3405C271.404 78.121 272.171 78.8139 273.016 79.4028Z" fill="#FC9D9D"/>
<path opacity="0.15" d="M276.486 120.599L277.046 114.637C279.188 116.688 282.713 118.287 288.21 117.679C290.915 117.37 293.536 116.544 295.929 115.246C296.215 115.069 296.392 115.045 296.538 115.191C296.566 115.23 296.587 115.274 296.598 115.321C296.61 115.367 296.612 115.415 296.604 115.463C296.597 115.51 296.58 115.556 296.556 115.597C296.531 115.638 296.498 115.673 296.459 115.702C295.667 116.365 292.697 117.856 288.021 118.525C281.55 122.747 276.486 120.599 276.486 120.599Z" fill="black"/>
<path d="M287.474 93.3579C288.354 93.3579 289.068 92.6443 289.068 91.7641C289.068 90.8838 288.354 90.1703 287.474 90.1703C286.593 90.1703 285.879 90.8838 285.879 91.7641C285.879 92.6443 286.593 93.3579 287.474 93.3579Z" fill="black"/>
<path d="M286.78 91.5703C286.958 91.5703 287.103 91.4259 287.103 91.2475C287.103 91.069 286.958 90.9246 286.78 90.9246C286.601 90.9246 286.457 91.069 286.457 91.2475C286.457 91.4259 286.601 91.5703 286.78 91.5703Z" fill="white"/>
<path d="M274.805 93.4188C275.686 93.4188 276.4 92.7052 276.4 91.8249C276.4 90.9447 275.686 90.2311 274.805 90.2311C273.925 90.2311 273.211 90.9447 273.211 91.8249C273.211 92.7052 273.925 93.4188 274.805 93.4188Z" fill="black"/>
<path d="M274.106 91.6311C274.284 91.6311 274.429 91.4868 274.429 91.3083C274.429 91.1298 274.284 90.9854 274.106 90.9854C273.927 90.9854 273.783 91.1298 273.783 91.3083C273.783 91.4868 273.927 91.6311 274.106 91.6311Z" fill="white"/>
<path d="M267.963 89.9634V91.7519C267.963 93.4121 268.623 95.0041 269.798 96.1782C270.973 97.3523 272.566 98.0117 274.227 98.0117C275.888 98.0117 277.482 97.3523 278.656 96.1782C279.831 95.0041 280.491 93.4121 280.491 91.7519V89.9634C280.514 89.4555 280.356 88.956 280.047 88.5521H282.482C282.161 88.9536 281.983 89.45 281.977 89.9634V91.7519C281.95 92.5908 282.093 93.4261 282.397 94.209C282.7 94.9919 283.157 95.7055 283.741 96.3083C284.326 96.9106 285.026 97.39 285.799 97.7173C286.573 98.0445 287.404 98.2131 288.244 98.2131C289.084 98.2131 289.915 98.0445 290.688 97.7173C291.461 97.39 292.162 96.9106 292.746 96.3083C293.33 95.7055 293.787 94.9919 294.091 94.209C294.394 93.4261 294.537 92.5908 294.511 91.7519V89.9634C294.513 89.6611 294.454 89.3612 294.339 89.0813C294.224 88.8015 294.054 88.5478 293.84 88.3337C293.626 88.1202 293.372 87.9504 293.092 87.8355C292.812 87.7205 292.512 87.6621 292.21 87.6639H270.258C269.956 87.6639 269.657 87.7235 269.378 87.8391C269.1 87.9547 268.846 88.1244 268.633 88.338C268.42 88.5515 268.251 88.8051 268.136 89.0838C268.021 89.363 267.963 89.6617 267.963 89.9634ZM284.223 88.6251H292.137C292.51 88.6299 292.866 88.7802 293.13 89.0436C293.394 89.307 293.544 89.6635 293.549 90.0364V91.8249C293.541 93.2417 292.97 94.5971 291.962 95.5929C290.954 96.5888 289.591 97.1436 288.174 97.1357C286.756 97.1278 285.4 96.5572 284.403 95.5497C283.406 94.5423 282.851 93.1809 282.859 91.7641V89.9756C282.859 89.7967 282.893 89.6197 282.961 89.4549C283.03 89.29 283.131 89.1403 283.257 89.0144C283.385 88.8885 283.535 88.7893 283.701 88.7224C283.867 88.6561 284.044 88.6226 284.223 88.6251ZM268.797 90.0364C268.802 89.6635 268.952 89.307 269.216 89.0436C269.48 88.7802 269.836 88.6299 270.209 88.6251H278.123C278.496 88.6299 278.853 88.7802 279.117 89.0436C279.38 89.307 279.531 89.6635 279.535 90.0364V91.8249C279.531 92.5263 279.389 93.2198 279.117 93.8665C278.845 94.5131 278.448 95.0996 277.948 95.5929C277.449 96.0857 276.858 96.4762 276.208 96.7409C275.558 97.0055 274.862 97.1399 274.16 97.1357C273.458 97.1314 272.764 96.9897 272.117 96.7171C271.47 96.4452 270.883 96.0486 270.39 95.5497C269.897 95.0509 269.506 94.4596 269.241 93.8105C268.976 93.1608 268.842 92.4655 268.846 91.7641L268.797 90.0364Z" fill="black"/>
<path d="M302.157 101.108L301.81 91.1253C301.81 91.1253 303.405 86.9887 307.453 88.692C312.195 90.6387 308.707 103.262 302.157 101.108Z" fill="#FC9D9D"/>
<path opacity="0.2" d="M303.459 95.3289C303.596 95.3289 303.728 95.2748 303.825 95.1775C303.922 95.0807 303.977 94.9493 303.977 94.8119C303.977 93.2363 304.33 92.1717 305.012 91.7215C305.315 91.5688 305.648 91.4843 305.987 91.4727C306.327 91.4611 306.665 91.5232 306.978 91.6546C307.102 91.6935 307.235 91.6856 307.353 91.6315C307.471 91.5779 307.565 91.4824 307.616 91.3638C307.668 91.2452 307.673 91.1114 307.632 90.9885C307.59 90.8662 307.505 90.7628 307.392 90.6995C306.921 90.503 306.411 90.4142 305.901 90.4404C305.391 90.4671 304.894 90.6076 304.445 90.8516C303.447 91.5086 302.942 92.8409 302.942 94.8119C302.942 94.9493 302.997 95.0807 303.093 95.1775C303.19 95.2748 303.322 95.3289 303.459 95.3289Z" fill="black"/>
<path d="M287.315 105.032L278.373 104.995L278.653 105.695C279.013 106.594 279.651 107.354 280.474 107.866C281.297 108.378 282.261 108.614 283.228 108.54C284.194 108.466 285.111 108.086 285.846 107.455C286.582 106.824 287.096 105.975 287.315 105.032Z" fill="white"/>
<path opacity="0.2" d="M280.053 101.351H280.996C281.133 101.351 281.266 101.297 281.362 101.2C281.459 101.103 281.514 100.971 281.514 100.834C281.514 100.697 281.459 100.565 281.362 100.469C281.266 100.372 281.133 100.317 280.996 100.317H280.053C279.698 100.325 279.353 100.2 279.085 99.9668C278.817 99.7332 278.647 99.4084 278.606 99.0562C278.566 98.7033 278.659 98.3487 278.866 98.0609C279.075 97.7732 279.383 97.5731 279.73 97.5007C279.797 97.4855 279.859 97.4575 279.915 97.4179C279.97 97.3784 280.018 97.3285 280.054 97.2713C280.09 97.2135 280.114 97.1491 280.125 97.0821C280.137 97.0152 280.135 96.9465 280.12 96.8802C280.105 96.8139 280.077 96.7512 280.037 96.6958C279.997 96.6405 279.948 96.593 279.89 96.5572C279.833 96.5207 279.768 96.4963 279.701 96.4854C279.634 96.4738 279.565 96.4756 279.499 96.4908C278.853 96.5644 278.263 96.8911 277.858 97.3991C277.454 97.9076 277.267 98.5555 277.341 99.201C277.415 99.8464 277.741 100.436 278.25 100.84C278.759 101.245 279.407 101.431 280.053 101.357V101.351Z" fill="black"/>
<g opacity="0.2">
<path opacity="0.2" d="M321.892 127.841L319.676 130.532L320.991 131.615L323.213 128.924L321.892 127.841Z" fill="black"/>
<path opacity="0.2" d="M263.734 125.259L261.516 127.95L262.833 129.032L265.05 126.342L263.734 125.259Z" fill="black"/>
<path opacity="0.2" d="M287.996 148.804L287.877 152.288L289.58 152.346L289.7 148.862L287.996 148.804Z" fill="black"/>
<path opacity="0.2" d="M309.746 142.824L309.397 144.485L312.811 145.2L313.16 143.539L309.746 142.824Z" fill="black"/>
<path opacity="0.2" d="M255.585 139.792L254.375 140.983L256.823 143.466L258.033 142.275L255.585 139.792Z" fill="black"/>
<path opacity="0.2" d="M292.748 134.043L292.4 135.704L295.814 136.419L296.162 134.758L292.748 134.043Z" fill="black"/>
<path opacity="0.2" d="M274.15 139.797L273.802 141.458L277.216 142.173L277.564 140.512L274.15 139.797Z" fill="black"/>
</g>
<path d="M218.758 236.146H197.519C196.375 236.146 195.449 237.072 195.449 238.214V264.914C195.449 266.056 196.375 266.982 197.519 266.982H218.758C219.901 266.982 220.828 266.056 220.828 264.914V238.214C220.828 237.072 219.901 236.146 218.758 236.146Z" fill="#343127"/>
<path d="M218.758 236.146H197.519C196.375 236.146 195.449 237.072 195.449 238.214V264.914C195.449 266.056 196.375 266.982 197.519 266.982H218.758C219.901 266.982 220.828 266.056 220.828 264.914V238.214C220.828 237.072 219.901 236.146 218.758 236.146Z" fill="#343127"/>
<path d="M217.437 238.007H198.84V263.156H217.437V238.007Z" fill="#343127"/>
<path opacity="0.7" d="M217.437 238.007H198.84V263.156H217.437V238.007Z" fill="white"/>
<path d="M210.899 235.1C210.769 235.108 210.64 235.075 210.531 235.005C210.421 234.935 210.336 234.832 210.29 234.71C210.131 234.259 209.836 233.867 209.445 233.59C209.054 233.313 208.587 233.165 208.108 233.165C207.629 233.165 207.161 233.313 206.77 233.59C206.38 233.867 206.084 234.259 205.925 234.71C205.88 234.826 205.801 234.926 205.698 234.996C205.594 235.066 205.472 235.102 205.347 235.1H202.523C202.361 235.1 202.206 235.163 202.092 235.278C201.978 235.392 201.914 235.547 201.914 235.708V238.914C201.914 239.075 201.978 239.23 202.092 239.344C202.206 239.458 202.361 239.522 202.523 239.522H213.79C213.952 239.522 214.107 239.458 214.221 239.344C214.335 239.23 214.399 239.075 214.399 238.914V235.708C214.399 235.547 214.335 235.392 214.221 235.278C214.107 235.163 213.952 235.1 213.79 235.1H210.899Z" fill="#343127"/>
<path opacity="0.5" d="M210.899 235.1C210.769 235.108 210.64 235.075 210.531 235.005C210.421 234.935 210.336 234.832 210.29 234.71C210.131 234.259 209.836 233.867 209.445 233.59C209.054 233.313 208.587 233.165 208.108 233.165C207.629 233.165 207.161 233.313 206.77 233.59C206.38 233.867 206.084 234.259 205.925 234.71C205.88 234.826 205.801 234.926 205.698 234.996C205.594 235.066 205.472 235.102 205.347 235.1H202.523C202.361 235.1 202.206 235.163 202.092 235.278C201.978 235.392 201.914 235.547 201.914 235.708V238.914C201.914 239.075 201.978 239.23 202.092 239.344C202.206 239.458 202.361 239.522 202.523 239.522H213.79C213.952 239.522 214.107 239.458 214.221 239.344C214.335 239.23 214.399 239.075 214.399 238.914V235.708C214.399 235.547 214.335 235.392 214.221 235.278C214.107 235.163 213.952 235.1 213.79 235.1H210.899Z" fill="black"/>
<path d="M214.186 243.05H202.09C201.71 243.05 201.402 243.358 201.402 243.738C201.402 244.118 201.71 244.425 202.09 244.425H214.186C214.566 244.425 214.874 244.118 214.874 243.738C214.874 243.358 214.566 243.05 214.186 243.05Z" fill="#343127"/>
<path d="M214.186 249.414H202.09C201.71 249.414 201.402 249.721 201.402 250.101C201.402 250.481 201.71 250.789 202.09 250.789H214.186C214.566 250.789 214.874 250.481 214.874 250.101C214.874 249.721 214.566 249.414 214.186 249.414Z" fill="#343127"/>
<path d="M208.738 255.783H202.09C201.71 255.783 201.402 256.091 201.402 256.47C201.402 256.85 201.71 257.158 202.09 257.158H208.738C209.118 257.158 209.426 256.85 209.426 256.47C209.426 256.091 209.118 255.783 208.738 255.783Z" fill="#343127"/>
<path d="M212.591 411.297H203.685V413.603C203.687 413.816 203.773 414.021 203.924 414.171C204.076 414.321 204.281 414.406 204.495 414.406H205.049C205.116 414.408 205.179 414.435 205.225 414.483C205.272 414.531 205.298 414.594 205.298 414.661V415.136C205.298 415.242 205.318 415.348 205.358 415.447C205.399 415.545 205.459 415.635 205.534 415.709C205.609 415.785 205.698 415.844 205.797 415.885C205.896 415.925 206.002 415.945 206.108 415.945H210.174C210.28 415.945 210.386 415.924 210.483 415.883C210.581 415.843 210.67 415.783 210.745 415.708C210.82 415.632 210.879 415.543 210.918 415.445C210.959 415.347 210.979 415.242 210.978 415.136V414.661C210.978 414.594 211.005 414.529 211.053 414.481C211.101 414.433 211.166 414.406 211.234 414.406H211.782C211.888 414.406 211.993 414.386 212.091 414.346C212.189 414.307 212.278 414.248 212.354 414.173C212.429 414.098 212.489 414.009 212.53 413.912C212.57 413.814 212.591 413.709 212.591 413.603V411.297Z" fill="#343127"/>
<path opacity="0.5" d="M212.591 411.297H203.685V413.603C203.687 413.816 203.773 414.021 203.924 414.171C204.076 414.321 204.281 414.406 204.495 414.406H205.049C205.116 414.408 205.179 414.435 205.225 414.483C205.272 414.531 205.298 414.594 205.298 414.661V415.136C205.298 415.242 205.318 415.348 205.358 415.447C205.399 415.545 205.459 415.635 205.534 415.709C205.609 415.785 205.698 415.844 205.797 415.885C205.896 415.925 206.002 415.945 206.108 415.945H210.174C210.28 415.945 210.386 415.924 210.483 415.883C210.581 415.843 210.67 415.783 210.745 415.708C210.82 415.632 210.879 415.543 210.918 415.445C210.959 415.347 210.979 415.242 210.978 415.136V414.661C210.978 414.594 211.005 414.529 211.053 414.481C211.101 414.433 211.166 414.406 211.234 414.406H211.782C211.888 414.406 211.993 414.386 212.091 414.346C212.189 414.307 212.278 414.248 212.354 414.173C212.429 414.098 212.489 414.009 212.53 413.912C212.57 413.814 212.591 413.709 212.591 413.603V411.297Z" fill="black"/>
<path d="M214.698 388.953C212.522 387.259 209.764 386.498 207.027 386.837C204.291 387.176 201.801 388.587 200.106 390.76C198.41 392.933 197.649 395.69 197.988 398.425C198.327 401.159 199.739 403.647 201.914 405.342C202.818 406.035 203.424 407.046 203.606 408.17C203.606 408.17 203.679 410.141 203.71 410.141H212.616C212.646 410.141 212.658 408.152 212.689 408.17C212.936 406.983 213.612 405.929 214.588 405.208C215.812 404.244 216.804 403.017 217.49 401.617C218.176 400.218 218.538 398.683 218.55 397.125C218.561 395.567 218.222 394.027 217.557 392.617C216.893 391.208 215.919 389.966 214.71 388.984L214.698 388.953ZM214.217 396.77C213.929 396.77 213.654 396.656 213.45 396.453C213.247 396.25 213.133 395.975 213.133 395.687C213.133 394.74 212.757 393.831 212.087 393.16C211.417 392.489 210.508 392.112 209.56 392.11C209.411 392.121 209.261 392.102 209.121 392.053C208.98 392.003 208.851 391.926 208.742 391.825C208.632 391.723 208.545 391.6 208.485 391.464C208.426 391.327 208.395 391.18 208.395 391.031C208.395 390.882 208.426 390.734 208.485 390.598C208.545 390.461 208.632 390.338 208.742 390.237C208.851 390.135 208.98 390.058 209.121 390.009C209.261 389.959 209.411 389.94 209.56 389.951C211.082 389.953 212.541 390.557 213.617 391.633C214.693 392.708 215.298 394.167 215.3 395.687C215.301 395.831 215.273 395.973 215.218 396.105C215.163 396.238 215.082 396.358 214.981 396.459C214.878 396.56 214.757 396.639 214.624 396.693C214.491 396.747 214.348 396.773 214.204 396.77H214.217Z" fill="#343127"/>
<path d="M216.652 296.067L214.771 297.947C215.958 300.118 216.322 302.645 215.796 305.063C215.271 307.482 213.89 309.63 211.908 311.113C209.926 312.597 207.474 313.317 205.004 313.14C202.533 312.964 200.21 311.903 198.458 310.153C196.707 308.403 195.646 306.081 195.47 303.612C195.293 301.144 196.013 298.694 197.498 296.713C198.982 294.732 201.132 293.352 203.552 292.827C205.972 292.302 208.5 292.666 210.674 293.852L212.555 291.973C209.871 290.296 206.663 289.665 203.543 290.201C200.423 290.736 197.609 292.4 195.639 294.875C193.668 297.351 192.678 300.464 192.857 303.623C193.036 306.781 194.373 309.763 196.611 312C198.849 314.236 201.833 315.572 204.993 315.751C208.154 315.93 211.27 314.94 213.747 312.971C216.224 311.002 217.889 308.19 218.425 305.073C218.961 301.955 218.329 298.749 216.652 296.067Z" fill="#343127"/>
<path d="M213.328 299.388L211.319 301.396C211.459 301.882 211.528 302.386 211.526 302.892C211.527 304.039 211.188 305.161 210.551 306.115C209.915 307.069 209.009 307.813 207.949 308.253C206.889 308.692 205.722 308.808 204.597 308.585C203.471 308.362 202.437 307.811 201.625 307C200.813 306.189 200.259 305.156 200.035 304.032C199.811 302.907 199.925 301.741 200.364 300.681C200.803 299.621 201.547 298.715 202.501 298.079C203.455 297.441 204.577 297.101 205.725 297.101C206.231 297.097 206.735 297.164 207.222 297.302L209.231 295.294C208.133 294.783 206.936 294.519 205.725 294.522C204.068 294.519 202.446 295.008 201.068 295.926C199.688 296.845 198.613 298.151 197.977 299.68C197.341 301.21 197.173 302.893 197.495 304.518C197.817 306.143 198.614 307.635 199.785 308.807C200.956 309.979 202.449 310.777 204.074 311.101C205.699 311.425 207.384 311.26 208.915 310.627C210.447 309.994 211.755 308.921 212.676 307.544C213.597 306.167 214.089 304.548 214.089 302.892C214.097 301.682 213.837 300.486 213.328 299.388Z" fill="#343127"/>
<path d="M205.725 306.755C204.96 306.755 204.212 306.529 203.577 306.104C202.941 305.68 202.446 305.076 202.153 304.371C201.861 303.665 201.784 302.888 201.933 302.139C202.082 301.389 202.451 300.701 202.991 300.161C203.532 299.621 204.22 299.253 204.97 299.104C205.72 298.955 206.498 299.031 207.204 299.323C207.91 299.616 208.514 300.111 208.939 300.746C209.364 301.381 209.59 302.128 209.59 302.892C209.588 303.916 209.18 304.898 208.456 305.622C207.732 306.346 206.749 306.753 205.725 306.755ZM205.725 301.603C205.469 301.603 205.22 301.678 205.007 301.82C204.796 301.962 204.63 302.163 204.532 302.399C204.435 302.634 204.409 302.893 204.459 303.144C204.509 303.394 204.631 303.624 204.812 303.804C204.992 303.985 205.222 304.107 205.472 304.157C205.723 304.207 205.983 304.181 206.218 304.084C206.454 303.986 206.656 303.821 206.798 303.609C206.94 303.397 207.015 303.147 207.015 302.892C207.015 302.55 206.879 302.222 206.637 301.98C206.395 301.738 206.067 301.603 205.725 301.603Z" fill="#343127"/>
<path d="M223.36 289.004C223.288 288.826 223.164 288.672 223.005 288.564C222.846 288.456 222.658 288.397 222.465 288.396H220.213V286.145C220.215 285.953 220.159 285.765 220.053 285.605C219.947 285.445 219.796 285.32 219.619 285.247C219.441 285.174 219.246 285.155 219.057 285.194C218.869 285.232 218.697 285.326 218.563 285.463L214.698 289.332C214.517 289.516 214.416 289.763 214.418 290.02V292.849H214.375L205.043 302.18C204.953 302.271 204.881 302.377 204.833 302.494C204.784 302.612 204.759 302.738 204.759 302.865C204.759 302.992 204.784 303.118 204.833 303.235C204.881 303.353 204.953 303.459 205.043 303.549C205.133 303.639 205.239 303.71 205.357 303.759C205.474 303.808 205.6 303.833 205.728 303.833C205.855 303.833 205.981 303.808 206.098 303.759C206.216 303.71 206.322 303.639 206.412 303.549L215.745 294.217C215.745 294.217 215.745 294.217 215.745 294.175H218.575C218.833 294.176 219.08 294.076 219.263 293.895L223.123 290.032C223.258 289.902 223.352 289.736 223.394 289.553C223.436 289.371 223.425 289.18 223.36 289.004Z" fill="#343127"/>
<path opacity="0.5" d="M223.36 289.004C223.288 288.826 223.164 288.672 223.005 288.564C222.846 288.456 222.658 288.397 222.465 288.396H220.213V286.145C220.215 285.953 220.159 285.765 220.053 285.605C219.947 285.445 219.796 285.32 219.619 285.247C219.441 285.174 219.246 285.155 219.057 285.194C218.869 285.232 218.697 285.326 218.563 285.463L214.698 289.332C214.517 289.516 214.416 289.763 214.418 290.02V292.849H214.375L205.043 302.18C204.953 302.271 204.881 302.377 204.833 302.494C204.784 302.612 204.759 302.738 204.759 302.865C204.759 302.992 204.784 303.118 204.833 303.235C204.881 303.353 204.953 303.459 205.043 303.549C205.133 303.639 205.239 303.71 205.357 303.759C205.474 303.808 205.6 303.833 205.728 303.833C205.855 303.833 205.981 303.808 206.098 303.759C206.216 303.71 206.322 303.639 206.412 303.549L215.745 294.217C215.745 294.217 215.745 294.217 215.745 294.175H218.575C218.833 294.176 219.08 294.076 219.263 293.895L223.123 290.032C223.258 289.902 223.352 289.736 223.394 289.553C223.436 289.371 223.425 289.18 223.36 289.004Z" fill="black"/>
<path d="M197.044 348.304H200.282C200.453 348.304 200.618 348.372 200.739 348.493C200.859 348.614 200.928 348.778 200.928 348.949V360.605H196.435V348.949C196.435 348.784 196.498 348.626 196.611 348.506C196.724 348.386 196.879 348.313 197.044 348.304Z" fill="#343127"/>
<path d="M203.363 342.525H206.601C206.772 342.525 206.937 342.593 207.058 342.714C207.178 342.835 207.246 342.999 207.246 343.17V360.605H202.711V343.17C202.711 343.085 202.728 343 202.761 342.922C202.794 342.843 202.842 342.772 202.902 342.712C202.963 342.652 203.035 342.605 203.114 342.573C203.193 342.54 203.277 342.525 203.363 342.525Z" fill="#343127"/>
<path d="M209.669 345.761H212.908C213.079 345.761 213.243 345.83 213.364 345.951C213.485 346.071 213.553 346.235 213.553 346.406V360.599H209.018V346.406C209.018 346.321 209.035 346.237 209.068 346.158C209.1 346.08 209.148 346.008 209.209 345.948C209.269 345.888 209.341 345.841 209.42 345.809C209.499 345.777 209.584 345.761 209.669 345.761Z" fill="#343127"/>
<path d="M215.976 340.53H219.214C219.385 340.53 219.55 340.598 219.671 340.718C219.792 340.839 219.86 341.004 219.86 341.175V360.599H215.306V341.175C215.306 341.088 215.324 341.002 215.357 340.922C215.391 340.842 215.441 340.77 215.503 340.71C215.566 340.65 215.64 340.603 215.721 340.572C215.802 340.541 215.889 340.527 215.976 340.53Z" fill="#343127"/>
<path d="M221.388 359.966H194.889C194.754 359.966 194.645 360.075 194.645 360.209V360.994C194.645 361.129 194.754 361.237 194.889 361.237H221.388C221.522 361.237 221.631 361.129 221.631 360.994V360.209C221.631 360.075 221.522 359.966 221.388 359.966Z" fill="#343127"/>
<path opacity="0.5" d="M221.388 359.966H194.889C194.754 359.966 194.645 360.075 194.645 360.209V360.994C194.645 361.129 194.754 361.237 194.889 361.237H221.388C221.522 361.237 221.631 361.129 221.631 360.994V360.209C221.631 360.075 221.522 359.966 221.388 359.966Z" fill="black"/>
<path d="M27.6652 418.755C28.3409 420.757 28.6136 422.868 28.4687 424.973L28.5174 442.444C28.4078 445.498 27.5197 448.479 25.9363 451.094L25.5589 451.703C25.078 452.475 24.4059 453.114 23.6078 453.552C22.8091 453.996 21.9113 454.221 20.9993 454.215H15.7641C14.6142 454.233 13.4904 453.868 12.5676 453.181C11.6453 452.5 10.9751 451.526 10.6628 450.419C9.98097 447.834 9.89393 445.133 10.4071 442.511L14.8632 423.811C15.1645 422.053 15.7032 420.349 16.4642 418.737H27.6652V418.755Z" fill="#FFDD00"/>
<path d="M98.7245 377.742L101.981 411.109C102.194 415.038 103.199 417.417 104.416 419.078L117.109 443.721L113.578 448.345L99.7472 441.75L87.4687 420.55C87.5053 416.943 87.1217 414.746 86.4278 409.898L80.3403 373.897L98.7245 377.742Z" fill="#FC9D9D"/>
<path opacity="0.15" d="M102.31 422.266C100.904 420.282 99.102 415.61 98.7245 413.445L94.4633 401.077C94.3933 400.642 94.1827 400.243 93.8637 399.938C93.5453 399.634 93.1356 399.442 92.6979 399.392L84.2789 398.285L84.1328 396.527H100.569L101.994 411.127C102.31 413.652 102.894 416.9 104.429 419.096L117.121 443.74L114.948 447.171L102.31 422.266Z" fill="black"/>
<path d="M124.414 447.925L117.109 443.715C114.547 444.129 111.923 443.886 109.481 443.01C107.039 442.134 104.858 440.655 103.144 438.709L87.4687 420.55C84.6307 426.311 83.6245 432.808 84.5833 439.159L86.8661 454.252H88.6923L89.1854 438.739C89.2067 438.484 89.3029 438.24 89.4618 438.04C89.6207 437.839 89.8349 437.693 90.0784 437.614C90.3219 437.535 90.5831 437.529 90.829 437.602C91.0756 437.669 91.2959 437.808 91.4621 438.003L101.056 449.209C102.443 450.802 104.158 452.074 106.082 452.944C108.007 453.814 110.096 454.264 112.208 454.252H127.184C127.447 454.264 127.709 454.203 127.945 454.087C128.181 453.966 128.383 453.789 128.533 453.576C128.682 453.357 128.775 453.108 128.802 452.846C128.829 452.579 128.79 452.317 128.687 452.074C127.836 450.2 126.31 448.722 124.414 447.925Z" fill="#FFDD00"/>
<path d="M28.42 410.908C27.6481 417.186 27.3109 423.507 27.4095 429.833L27.5312 437.389C27.4338 439.019 26.7082 440.552 25.5059 441.659C24.3036 442.766 22.719 443.362 21.0845 443.326H20.0131C16.0867 443.326 13.0734 440.017 13.6213 436.312L15.4475 427.375C16.374 422.837 16.7058 418.193 16.4337 413.566L14.6501 383.15L31.1228 383.411L28.42 410.908Z" fill="#FC9D9D"/>
<path d="M91.4743 177.156L93.7815 204.026L95.8695 226.534C96.9854 238.526 97.7098 250.541 98.0428 262.578L101.531 396.551H83.4815L54.6328 215.919C54.5159 215.278 54.175 214.7 53.6709 214.288C53.1669 213.876 52.5326 213.656 51.8812 213.668C51.1982 213.655 50.5347 213.897 50.0215 214.347C49.5077 214.797 49.1808 215.423 49.1053 216.101L30.9524 396.539L14.5953 396.411L8.50777 269.641C6.78014 239.998 9.13173 210.26 15.4962 181.256L16.5798 177.156H91.4743Z" fill="#181A24"/>
<path d="M30.6237 396.533L30.9527 396.539V396.533H30.6237Z" fill="black"/>
<path opacity="0.15" d="M29.7958 396.527C29.7958 396.527 27.8478 416.085 27.6773 418.682V418.755C27.4338 422.436 27.3407 426.122 27.3973 429.815L27.5191 437.37C27.4265 438.946 26.7459 440.43 25.6118 441.525C24.4777 442.62 22.9729 443.253 21.395 443.296C24.4083 441.075 24.1649 437.419 24.2501 434.706L24.7553 401.619C24.7517 401.085 24.5581 400.569 24.2086 400.165C23.8598 399.76 23.3783 399.493 22.8499 399.41L15.5145 398.139L15.4232 396.588L29.7958 396.527Z" fill="black"/>
<path opacity="0.2" d="M51.8812 213.668C51.1872 213.665 50.5158 213.916 49.9941 214.374C49.4827 214.815 49.1656 215.44 49.1114 216.113L30.9463 396.539L25.1084 396.49L37.0399 227.1C37.4538 219.575 43.9735 213.668 51.8812 213.668Z" fill="black"/>
<path opacity="0.2" d="M92.0405 183.75L93.7815 204.026L95.0781 218.018C96.7218 235.671 97.7889 253.362 98.2802 271.089L101.531 396.533H93.471L85.1616 217.075L83.2623 182.631H91.9491L92.0405 183.75Z" fill="black"/>
<path d="M91.9491 182.655L91.3708 175.781L17.012 175.605L15.1797 182.655H91.9491Z" fill="#181A24"/>
<path d="M50.9438 42.9149C52.8589 41.9495 54.533 40.5667 55.8418 38.8683C57.15 37.1698 58.06 35.1994 58.5044 33.1025C59.1448 30.2074 58.8843 27.1858 57.7587 24.4429C56.6325 21.6999 54.6943 19.3657 52.2039 17.7542C54.1263 17.472 55.8941 16.5418 57.2151 15.1177C58.5361 13.6942 59.3299 11.8619 59.4663 9.92499C59.6142 8.05802 59.1479 6.19348 58.138 4.61546C57.128 3.03744 55.6299 1.83234 53.8719 1.18325C52.7438 0.790262 51.5452 0.643645 50.3557 0.751928C49.1662 0.86082 48.0139 1.22277 46.9753 1.81347C45.9374 2.40416 45.0383 3.2096 44.3376 4.17685C43.637 5.14349 43.1518 6.24884 42.9144 7.41866C42.6684 8.59639 42.6684 9.81184 42.9144 10.9896C43.1499 12.1156 42.9716 13.2879 42.4128 14.2934C41.8539 15.299 40.9518 16.0698 39.8706 16.4646C37.6115 17.267 35.6051 18.6515 34.054 20.4784C32.5029 22.3052 31.4626 24.5092 31.0377 26.8671C29.4671 36.0712 34.3188 40.5363 38.4766 42.6351C39.5042 43.1619 40.3077 44.0409 40.7399 45.111C41.1727 46.181 41.2056 47.3709 40.8324 48.4629C40.6498 49.0226 40.5232 49.5993 40.455 50.1845C40.2182 52.1968 40.6985 54.2281 41.8119 55.9217C42.9253 57.6153 44.6 58.8617 46.5425 59.4433C47.6492 59.7463 48.8059 59.8187 49.9412 59.6568C51.0771 59.4944 52.1673 59.1008 53.1444 58.4998C54.1214 57.8994 54.9646 57.1049 55.622 56.165C56.2788 55.2257 56.736 54.1612 56.9643 53.0376C57.4477 50.9011 57.0927 48.6606 55.9726 46.7772C54.8525 44.8938 53.0531 43.5117 50.9438 42.9149Z" fill="#343127"/>
<path opacity="0.2" d="M50.9438 42.9149C52.8589 41.9495 54.533 40.5667 55.8418 38.8683C57.15 37.1698 58.06 35.1994 58.5044 33.1025C59.1448 30.2074 58.8843 27.1858 57.7587 24.4429C56.6325 21.6999 54.6943 19.3657 52.2039 17.7542C54.1263 17.472 55.8941 16.5418 57.2151 15.1177C58.5361 13.6942 59.3299 11.8619 59.4663 9.92499C59.6142 8.05802 59.1479 6.19348 58.138 4.61546C57.128 3.03744 55.6299 1.83234 53.8719 1.18325C52.7438 0.790262 51.5452 0.643645 50.3557 0.751928C49.1662 0.86082 48.0139 1.22277 46.9753 1.81347C45.9374 2.40416 45.0383 3.2096 44.3376 4.17685C43.637 5.14349 43.1518 6.24884 42.9144 7.41866C42.6684 8.59639 42.6684 9.81184 42.9144 10.9896C43.1499 12.1156 42.9716 13.2879 42.4128 14.2934C41.8539 15.299 40.9518 16.0698 39.8706 16.4646C37.6115 17.267 35.6051 18.6515 34.054 20.4784C32.5029 22.3052 31.4626 24.5092 31.0377 26.8671C29.4671 36.0712 34.3188 40.5363 38.4766 42.6351C39.5042 43.1619 40.3077 44.0409 40.7399 45.111C41.1727 46.181 41.2056 47.3709 40.8324 48.4629C40.6498 49.0226 40.5232 49.5993 40.455 50.1845C40.2182 52.1968 40.6985 54.2281 41.8119 55.9217C42.9253 57.6153 44.6 58.8617 46.5425 59.4433C47.6492 59.7463 48.8059 59.8187 49.9412 59.6568C51.0771 59.4944 52.1673 59.1008 53.1444 58.4998C54.1214 57.8994 54.9646 57.1049 55.622 56.165C56.2788 55.2257 56.736 54.1612 56.9643 53.0376C57.4477 50.9011 57.0927 48.6606 55.9726 46.7772C54.8525 44.8938 53.0531 43.5117 50.9438 42.9149Z" fill="black"/>
<path d="M55.8868 19.2629C59.7633 19.2629 62.9057 16.0515 62.9057 12.0907C62.9057 8.12979 59.7633 4.9184 55.8868 4.9184C52.0103 4.9184 48.8679 8.12979 48.8679 12.0907C48.8679 16.0515 52.0103 19.2629 55.8868 19.2629Z" fill="#181A24"/>
<path d="M63.5023 45.5003C73.9143 45.5003 82.3553 36.8717 82.3553 26.2283C82.3553 15.5849 73.9143 6.9563 63.5023 6.9563C53.0902 6.9563 44.6493 15.5849 44.6493 26.2283C44.6493 36.8717 53.0902 45.5003 63.5023 45.5003Z" fill="#343127"/>
<path opacity="0.2" d="M63.5023 45.5003C73.9143 45.5003 82.3553 36.8717 82.3553 26.2283C82.3553 15.5849 73.9143 6.9563 63.5023 6.9563C53.0902 6.9563 44.6493 15.5849 44.6493 26.2283C44.6493 36.8717 53.0902 45.5003 63.5023 45.5003Z" fill="black"/>
<path d="M78.4167 67.0536L71.9213 70.9347C70.8316 71.5826 69.689 72.1386 68.5062 72.5955C65.2956 73.8347 61.8422 74.3152 58.4149 73.9983C54.9883 73.682 51.681 72.5772 48.7523 70.7705L42.7682 67.1205L45.3797 66.3783C46.2484 66.1313 47.0173 65.6167 47.5767 64.908C48.1362 64.1993 48.4582 63.3324 48.4965 62.4302L49.1053 39.5326L69.4193 35.4628L71.7082 56.2983L72.2257 61.0128L72.4083 62.6857C72.5069 63.5137 72.8484 64.2942 73.3896 64.9287C73.9314 65.5632 74.6491 66.0231 75.4521 66.2506L78.4167 67.0536Z" fill="#FC9D9D"/>
<path d="M65.7729 57.3385H64.6832C60.8987 57.1724 57.335 55.5135 54.7728 52.7255C52.2106 49.9369 50.8598 46.2467 51.0168 42.4647L51.6621 22.2133C51.6749 21.588 51.8106 20.9711 52.0627 20.3981C52.3147 19.825 52.6769 19.3079 53.1298 18.8754C53.5821 18.4429 54.1154 18.104 54.6998 17.8783C55.2835 17.6527 55.9063 17.5444 56.5321 17.5596L75.0624 18.1253C76.7024 18.1977 78.2462 18.918 79.3553 20.1267C80.4645 21.3355 81.0489 22.9348 80.9795 24.5737L80.3707 43.3894C80.0603 51.2916 73.5405 57.6061 65.7729 57.3385Z" fill="#FC9D9D"/>
<path d="M65.8459 36.7281C66.6897 36.7281 67.3739 36.028 67.3739 35.1647C67.3739 34.3015 66.6897 33.6013 65.8459 33.6013C65.0022 33.6013 64.318 34.3015 64.318 35.1647C64.318 36.028 65.0022 36.7281 65.8459 36.7281Z" fill="black"/>
<path d="M66.5037 35.2143C66.6823 35.2143 66.8267 35.0669 66.8267 34.8854C66.8267 34.7038 66.6823 34.5564 66.5037 34.5564C66.3252 34.5564 66.1808 34.7038 66.1808 34.8854C66.1808 35.0669 66.3252 35.2143 66.5037 35.2143Z" fill="white"/>
<path d="M77.7227 37.6285C78.5664 37.6285 79.2506 36.9283 79.2506 36.0651C79.2506 35.2019 78.5664 34.5017 77.7227 34.5017C76.8789 34.5017 76.1947 35.2019 76.1947 36.0651C76.1947 36.9283 76.8789 37.6285 77.7227 37.6285Z" fill="black"/>
<path d="M78.3866 36.0538C78.5651 36.0538 78.7095 35.9064 78.7095 35.7249C78.7095 35.5433 78.5651 35.3959 78.3866 35.3959C78.208 35.3959 78.0636 35.5433 78.0636 35.7249C78.0636 35.9064 78.208 36.0538 78.3866 36.0538Z" fill="white"/>
<path opacity="0.2" d="M71.5378 44.7338L69.4924 44.7703C69.3773 44.7661 69.2684 44.7192 69.1868 44.6389C69.1046 44.558 69.0553 44.4503 69.0486 44.336C69.0419 44.221 69.0778 44.1085 69.1496 44.019C69.2215 43.929 69.3244 43.87 69.4376 43.8517L71.4769 43.8092C71.5999 43.8043 71.721 43.7757 71.833 43.724C71.945 43.6723 72.0455 43.5993 72.1295 43.5093C72.2129 43.4186 72.278 43.3128 72.3206 43.1972C72.3633 43.0816 72.3827 42.9587 72.3779 42.8358C72.3669 42.5828 72.2634 42.3419 72.0875 42.1594C71.9115 41.9769 71.6747 41.8649 71.4221 41.8443C71.3071 41.8309 71.1993 41.7822 71.1129 41.7043C71.027 41.6271 70.9667 41.5249 70.9412 41.4123C70.954 41.2974 71.0014 41.1891 71.0775 41.1021C71.1542 41.0151 71.2553 40.9537 71.3673 40.9257C71.8519 40.9257 72.3164 41.1179 72.6585 41.4604C73.0012 41.8023 73.1936 42.2664 73.1936 42.7507C73.2429 42.9934 73.2368 43.2446 73.1759 43.4849C73.115 43.7252 73.0012 43.9491 72.8423 44.1395C72.6834 44.3299 72.4832 44.482 72.2579 44.5848C72.0321 44.6882 71.7861 44.7387 71.5378 44.7338Z" fill="black"/>
<path opacity="0.15" d="M48.9227 42.4526L51.1873 43.4077L48.9044 47.52L48.9227 42.4526Z" fill="black"/>
<path opacity="0.15" d="M72.25 60.9885C71.209 61.1327 70.1541 61.1491 69.1088 61.0371C66.4358 60.7299 63.932 59.5723 61.9682 57.7339C59.7134 57.271 57.584 56.3311 55.7224 54.9782C55.6768 54.9435 55.6384 54.9003 55.6098 54.8504C55.5812 54.8005 55.5635 54.7452 55.5575 54.6886C55.5508 54.6314 55.5562 54.5736 55.5733 54.5189C55.5903 54.4641 55.6183 54.4136 55.6555 54.3698C55.689 54.323 55.7316 54.2835 55.7815 54.2536C55.8308 54.2244 55.8862 54.2056 55.9434 54.1989C56.0013 54.1916 56.0591 54.1971 56.1145 54.2141C56.1693 54.2305 56.2204 54.2591 56.2642 54.2968C57.6954 55.3426 59.3074 56.1158 61.0186 56.5781C61.1464 56.5781 61.2681 56.6693 61.3899 56.6876C61.7673 56.7849 62.0839 56.8153 62.3943 56.9187H62.5222C62.7188 56.9881 62.9233 57.0331 63.1309 57.0526C63.7032 57.1073 64.2693 57.1621 64.8476 57.229C67.1913 57.4072 69.5459 57.069 71.7447 56.2374L72.25 60.9885Z" fill="black"/>
<path d="M71.9091 46.5893C71.9541 46.5941 71.9973 46.6093 72.0351 46.6337C72.0734 46.6586 72.1045 46.6921 72.1276 46.731C72.1502 46.7699 72.163 46.8143 72.1654 46.8594C72.1672 46.9044 72.1587 46.9494 72.1404 46.9908C71.7514 47.7262 71.1591 48.334 70.4341 48.7415C69.7091 49.1491 68.8818 49.3401 68.0508 49.2909C67.2205 49.241 66.4212 48.9539 65.7498 48.4629C65.0783 47.972 64.5621 47.2986 64.2632 46.5224C64.2145 46.3277 64.2632 46.133 64.5371 46.1513L71.9091 46.5893Z" fill="white"/>
<path d="M80.9125 32.1542C80.9186 32.0384 80.9186 31.9227 80.9125 31.8069C80.9156 31.7582 80.9156 31.7095 80.9125 31.6608V32.1542Z" fill="#343127"/>
<path d="M78.9097 17.8334L73.8084 17.7239C73.8053 15.8003 73.3506 13.9041 72.4813 12.188C72.1282 11.4885 69.6628 11.0687 69.6628 11.0687L47.553 16.0084L47.9122 25.036L50.0063 32.1413C52.2952 30.3893 55.832 31.1863 58.5775 31.2593C67.1 31.4844 71.8908 26.8793 73.3396 21.3069C78.2766 22.5723 81.3082 25.912 80.949 31.6486L81.6004 22.7183L78.9097 17.8334Z" fill="#343127"/>
<path opacity="0.2" d="M80.9125 32.1542C80.9186 32.0384 80.9186 31.9227 80.9125 31.8069C80.9156 31.7582 80.9156 31.7095 80.9125 31.6608V32.1542Z" fill="black"/>
<path opacity="0.2" d="M78.9097 17.8334L73.8084 17.7239C73.8053 15.8003 73.3506 13.9041 72.4813 12.188C72.1282 11.4885 69.6628 11.0687 69.6628 11.0687L47.553 16.0084L47.9122 25.036L50.0063 32.1413C52.2952 30.3893 55.832 31.1863 58.5775 31.2593C67.1 31.4844 71.8908 26.8793 73.3396 21.3069C78.2766 22.5723 81.3082 25.912 80.949 31.6486L81.6004 22.7183L78.9097 17.8334Z" fill="black"/>
<path d="M141.648 115.775L139.675 129.84L106.419 140.035C99.6072 142.128 92.1013 139.257 88.7654 132.948C88.6436 132.711 88.5219 132.468 88.4062 132.218L64.4823 80.6073L98.4932 80.4308L109.384 121.25L141.648 115.775Z" fill="#FFDD00"/>
<path opacity="0.3" d="M98.4871 80.4065L90.7316 94.8422C90.7316 94.8422 83.6214 115.051 82.5196 120.496C82.5196 120.496 88.1688 132.352 90.7438 135.874C92.5701 138.308 93.9702 137.505 93.9702 137.505L98.1889 124.444L102.054 116.718C105.175 110.486 105.74 103.285 103.631 96.6429L98.4871 80.4065Z" fill="#FFDD00"/>
<g opacity="0.6">
<path opacity="0.6" d="M60.8968 89.2578C71.4891 89.2578 80.109 79.9929 80.109 68.3433L77.8444 67.8018V68.1243C77.8444 78.5268 70.2472 86.9826 60.8968 86.9826C51.5464 86.9826 43.9492 78.5146 43.9492 68.1243V67.8383L41.6968 68.3007C41.8734 79.786 50.4202 89.2578 60.8968 89.2578Z" fill="#FFDD00"/>
</g>
<path d="M23.2213 72.3278L45.2459 65.5997L76.4443 65.7882L88.1263 69.7424C91.9066 71.0004 95.0782 73.6291 97.014 77.1093C99.2024 81.0021 99.9202 85.5506 99.035 89.9269L98.5298 92.5671L101.519 102.854C103.272 109.546 100.989 113.378 96.3687 118.756C94.9077 120.447 94.1468 121.153 93.5624 124.365C93.5624 124.365 90.75 134.95 90.2264 139.336C88.2419 156.46 85.6852 168.329 85.6852 168.329L29.741 169.205C26.9894 169.205 25.8267 166.285 27.1112 163.888C27.1112 163.888 31.1472 155.876 31.9081 149.093C34.3431 126.999 28.0487 100.688 28.0487 100.688L11.8681 86.8001L12.5803 83.6672C13.1873 81.0033 14.493 78.5493 16.3631 76.5564C18.2332 74.5635 20.6 73.1041 23.2213 72.3278Z" fill="#FFDD00"/>
<path d="M48.0217 64.3708L42.7743 66.4148L51.2177 87.1104L59.4845 82.6634L48.0217 64.3708Z" fill="white"/>
<path d="M48.5453 65.2164L59.5028 82.6634L71.069 98.109L73.3945 65.2164C73.3945 65.2164 59.9472 58.4274 48.5453 65.2164Z" fill="#FC9D9D"/>
<path d="M73.1935 64.6142L72.0917 83.8436L80.8029 91.9587L76.9556 65.9647L73.1935 64.6142Z" fill="white"/>
<path opacity="0.3" d="M82.8301 106.735L76.9556 65.9647L80.389 67.1266L86.0626 78.7153L82.197 80.4065L91.3343 83.8436L88.5341 107.635L82.8301 106.735Z" fill="black"/>
<path d="M47.413 101.126L100.752 109.576L84.011 171.894L30.855 162.696L47.413 101.126Z" fill="#343127"/>
<g opacity="0.3">
<path opacity="0.3" d="M66.3147 109.929C67.1213 109.929 67.7757 109.275 67.7757 108.469C67.7757 107.662 67.1213 107.009 66.3147 107.009C65.5081 107.009 64.8537 107.662 64.8537 108.469C64.8537 109.275 65.5081 109.929 66.3147 109.929Z" fill="black"/>
<path opacity="0.3" d="M81.2899 112.143C82.0965 112.143 82.751 111.489 82.751 110.683C82.751 109.877 82.0965 109.223 81.2899 109.223C80.4827 109.223 79.8289 109.877 79.8289 110.683C79.8289 111.489 80.4827 112.143 81.2899 112.143Z" fill="black"/>
</g>
<path opacity="0.3" d="M44.2414 112.904L33.7222 85.7781L40.869 82.6634L35.2684 81.6657L37.1799 68.252L41.1124 66.9563L52.0699 101.862L47.413 101.126L44.2414 112.904Z" fill="black"/>
<path d="M78.3436 176.468L46.8651 176.292V165.184L78.3436 171.133V176.468Z" fill="white"/>
<path d="M11.8803 86.8L0.478393 152.275C0.174018 153.672 0.22637 155.123 0.63058 156.494C1.03479 157.866 1.77807 159.114 2.79163 160.123C4.38838 161.707 6.54702 162.596 8.79696 162.596C11.0469 162.596 13.2055 161.707 14.8023 160.123L24.7675 150.182L26.405 134.858L33.7466 101.303L11.8803 86.8Z" fill="#FFDD00"/>
<path d="M21.0176 155.809C19.374 163.645 10.4862 190.636 9.73749 213.644H34.8667C36.4427 213.644 38.0029 213.335 39.4591 212.732C40.9152 212.13 42.2386 211.247 43.3527 210.134C44.4673 209.02 45.3506 207.698 45.9532 206.243C46.5559 204.788 46.8657 203.228 46.8651 201.653V165.184L30.855 162.702L35.1163 146.733L30.855 114.735L21.0176 155.809Z" fill="#FFDD00"/>
<path d="M89.9646 149.744C90.0431 161.404 91.1986 173.033 93.4162 184.48C95.0111 192.48 96.0825 205.456 96.2408 213.346C96.2481 213.719 96.1812 214.088 96.043 214.435C95.9054 214.781 95.6996 215.096 95.4379 215.362C95.1767 215.628 94.865 215.839 94.5211 215.982C94.1766 216.126 93.8076 216.2 93.4345 216.199H87.0122C85.4361 216.199 83.8759 215.89 82.4198 215.287C80.9636 214.685 79.6408 213.802 78.5262 212.689C77.4122 211.575 76.5283 210.253 75.9256 208.798C75.323 207.343 75.0131 205.783 75.0137 204.208L75.3485 170.391L84.011 171.894L89.9646 149.744Z" fill="#FFDD00"/>
<path d="M24.8831 150.048L34.6231 140.315L40.8507 140.711L51.2968 139.299C51.6511 139.285 51.9859 139.135 52.2325 138.88C52.4784 138.625 52.6166 138.285 52.6178 137.93V137.492C52.616 137.129 52.4705 136.781 52.2124 136.524C51.9549 136.268 51.6061 136.124 51.242 136.124H42.4456H53.5492C53.9108 136.124 54.2578 135.98 54.5135 135.725C54.7691 135.469 54.9128 135.122 54.9128 134.761V134.408C54.9134 134.229 54.8787 134.051 54.8105 133.885C54.7423 133.719 54.6425 133.568 54.5153 133.441C54.3887 133.314 54.2383 133.213 54.0721 133.144C53.9065 133.075 53.7288 133.039 53.5492 133.039H55.5155C55.8771 133.039 56.224 132.896 56.4797 132.64C56.7354 132.385 56.8791 132.038 56.8791 131.677V131.5C56.8797 131.321 56.8449 131.143 56.7768 130.977C56.7086 130.811 56.6088 130.66 56.4815 130.533C56.3549 130.406 56.2046 130.305 56.0384 130.236C55.8728 130.167 55.695 130.132 55.5155 130.132H41.9525L47.1086 128.647L47.3034 128.605L54.6084 127.631C54.9365 127.587 55.2372 127.425 55.4546 127.175C55.6719 126.926 55.7906 126.606 55.7894 126.275C55.7894 126.085 55.7498 125.898 55.6731 125.724C55.5964 125.55 55.4838 125.395 55.3438 125.267C55.2032 125.14 55.0376 125.042 54.8574 124.982C54.6778 124.922 54.4867 124.901 54.298 124.918L40.6924 126.202C40.5737 126.212 40.4568 126.239 40.3454 126.281L26.3928 134.798L24.8831 150.048Z" fill="#FC9D9D"/>
<path opacity="0.2" d="M34.5988 140.34L21.6203 153.315L19.6662 161.205L35.4937 145.456L36.8268 140.479L34.5988 140.34Z" fill="black"/>
<path d="M52.0699 101.862L41.1124 66.9562L44.3693 65.7882L59.4845 82.6634L67.9279 91.247L72.0917 83.8436L80.8029 91.9588L82.8301 106.735L52.0699 101.862Z" fill="white"/>
<path opacity="0.2" d="M51.2177 87.1103L59.4845 82.6634L67.9279 91.247L59.4845 85.699L51.2177 87.1103Z" fill="black"/>
<path opacity="0.2" d="M79.3115 87.9012L72.0917 83.8436L67.9279 91.247L71.5195 85.9728L79.3115 87.9012Z" fill="black"/>
<path d="M167.708 123.921L154.882 124.067L139.663 129.821L141.647 115.775L154.937 113.834C154.937 113.834 155.484 110.574 162.047 109.71L167.793 107.033C168.264 107.419 168.566 107.974 168.632 108.579C168.698 109.184 168.523 109.791 168.146 110.27C166.801 112.095 165.62 112.21 165.62 112.21L170.204 111.188L169.279 114.108L171.105 117.539L170.338 120.331L167.708 123.921Z" fill="#FC9D9D"/>
<path opacity="0.3" d="M53.5248 133.094H42.1473" stroke="black" stroke-width="1.03" stroke-linecap="round" stroke-linejoin="round"/>
<path opacity="0.3" d="M51.2177 136.148L42.4213 136.178" stroke="black" stroke-width="1.03" stroke-linecap="round" stroke-linejoin="round"/>
<path d="M200.982 53.6703C195.904 51.0313 190.156 49.957 184.466 50.583C178.776 51.2089 173.399 53.5072 169.016 57.187C164.633 60.8669 161.441 65.7627 159.843 71.256C158.245 76.7492 158.313 82.5923 160.038 88.0466C161.764 93.5009 165.069 98.3213 169.536 101.898C174.004 105.475 179.432 107.648 185.135 108.142C190.838 108.636 196.559 107.428 201.576 104.672C206.592 101.916 210.677 97.7349 213.316 92.6583C216.849 85.8529 217.534 77.9245 215.222 70.6142C212.909 63.3038 207.788 57.2096 200.982 53.6703ZM176.559 100.615C172.348 98.4259 168.881 95.0381 166.596 90.8796C164.311 86.721 163.312 81.9791 163.724 77.2535C164.136 72.5274 165.942 68.0294 168.912 64.3289C171.882 60.6278 175.883 57.8903 180.41 56.4619C184.937 55.0341 189.786 54.9788 194.344 56.305C198.902 57.6305 202.964 60.2768 206.017 63.9097C209.07 67.5421 210.977 71.9981 211.495 76.7139C212.015 81.4291 211.123 86.1924 208.933 90.4014C207.479 93.1973 205.488 95.6793 203.074 97.7057C200.66 99.732 197.87 101.263 194.864 102.212C191.857 103.161 188.694 103.507 185.552 103.234C182.412 102.96 179.356 102.07 176.559 100.615Z" fill="#343127"/>
<path d="M158.887 133.198L175.932 101.741L180.62 104.174L163.885 135.893C163.816 136.026 163.721 136.145 163.605 136.241C163.489 136.337 163.356 136.41 163.211 136.453C163.067 136.497 162.915 136.511 162.766 136.495C162.616 136.48 162.47 136.434 162.339 136.361L159.344 134.706C159.086 134.563 158.895 134.326 158.809 134.044C158.724 133.763 158.752 133.459 158.887 133.198Z" fill="#343127"/>
<path opacity="0.2" d="M200.982 53.6703C195.904 51.0313 190.156 49.957 184.466 50.583C178.776 51.2089 173.399 53.5072 169.016 57.187C164.633 60.8669 161.441 65.7627 159.843 71.256C158.245 76.7492 158.313 82.5923 160.038 88.0466C161.764 93.5009 165.069 98.3213 169.536 101.898C174.004 105.475 179.432 107.648 185.135 108.142C190.838 108.636 196.559 107.428 201.576 104.672C206.592 101.916 210.677 97.7349 213.316 92.6583C216.849 85.8529 217.534 77.9245 215.222 70.6142C212.909 63.3038 207.788 57.2096 200.982 53.6703ZM176.559 100.615C172.348 98.4259 168.881 95.0381 166.596 90.8796C164.311 86.721 163.312 81.9791 163.724 77.2535C164.136 72.5274 165.942 68.0294 168.912 64.3289C171.882 60.6278 175.883 57.8903 180.41 56.4619C184.937 55.0341 189.786 54.9788 194.344 56.305C198.902 57.6305 202.964 60.2768 206.017 63.9097C209.07 67.5421 210.977 71.9981 211.495 76.7139C212.015 81.4291 211.123 86.1924 208.933 90.4014C207.479 93.1973 205.488 95.6793 203.074 97.7057C200.66 99.732 197.87 101.263 194.864 102.212C191.857 103.161 188.694 103.507 185.552 103.234C182.412 102.96 179.356 102.07 176.559 100.615Z" fill="black"/>
<path opacity="0.2" d="M158.887 133.198L175.932 101.741L180.62 104.174L163.885 135.893C163.816 136.026 163.721 136.145 163.605 136.241C163.489 136.337 163.356 136.41 163.211 136.453C163.067 136.497 162.915 136.511 162.766 136.495C162.616 136.48 162.47 136.434 162.339 136.361L159.344 134.706C159.086 134.563 158.895 134.326 158.809 134.044C158.724 133.763 158.752 133.459 158.887 133.198Z" fill="black"/>
<path d="M162.607 135.193L179.293 103.56L172.895 101.291L156.696 131.981C156.561 132.241 156.532 132.543 156.616 132.824C156.7 133.104 156.891 133.341 157.146 133.484L161.061 135.649C161.191 135.723 161.336 135.769 161.485 135.786C161.635 135.803 161.786 135.789 161.93 135.747C162.074 135.704 162.208 135.633 162.324 135.538C162.441 135.443 162.537 135.326 162.607 135.193Z" fill="#343127"/>
<path opacity="0.2" d="M172.895 101.303L170.898 105.135C171.361 105.409 171.823 105.671 172.304 105.92C173.827 106.707 175.415 107.359 177.052 107.867L179.293 103.572L172.895 101.303Z" fill="black"/>
<path d="M199.406 53.0559C194.326 50.4151 188.577 49.3383 182.885 49.9631C177.194 50.5879 171.815 52.8855 167.431 56.5647C163.046 60.2445 159.852 65.141 158.252 70.6355C156.652 76.1293 156.719 81.9742 158.444 87.4304C160.169 92.8865 163.474 97.7088 167.942 101.288C172.409 104.866 177.84 107.04 183.544 107.535C189.248 108.029 194.971 106.822 199.989 104.066C205.007 101.309 209.093 97.1278 211.733 92.05C215.269 85.2446 215.956 77.315 213.644 70.0034C211.333 62.6919 206.212 56.5964 199.406 53.0559ZM174.977 100.001C170.765 97.8116 167.298 94.4238 165.013 90.2652C162.729 86.1066 161.729 81.3647 162.141 76.6391C162.553 71.913 164.359 67.415 167.329 63.7145C170.299 60.0134 174.3 57.2759 178.827 55.8475C183.354 54.4191 188.203 54.3644 192.761 55.6905C197.319 57.0161 201.382 59.6624 204.435 63.2953C207.487 66.9277 209.394 71.3837 209.913 76.0995C210.432 80.8147 209.54 85.578 207.35 89.787C205.896 92.5829 203.906 95.0649 201.491 97.0913C199.078 99.1177 196.288 100.649 193.281 101.597C190.274 102.546 187.111 102.893 183.97 102.619C180.829 102.345 177.773 101.455 174.977 100.001Z" fill="#343127"/>
<path d="M173.832 120.234C173.701 120.392 173.539 120.522 173.355 120.616C173.172 120.71 172.973 120.766 172.767 120.781C172.562 120.796 172.356 120.769 172.161 120.702C171.966 120.635 171.787 120.53 171.635 120.392L168.682 117.752C168.409 117.501 168.051 117.362 167.681 117.362C167.31 117.362 166.953 117.501 166.679 117.752C166.538 117.886 166.425 118.047 166.346 118.225C166.268 118.403 166.225 118.595 166.221 118.789C166.217 118.984 166.252 119.177 166.323 119.359C166.394 119.54 166.501 119.705 166.637 119.845L169.187 122.454C169.461 122.736 169.83 122.906 170.222 122.934C170.614 122.961 171.002 122.842 171.312 122.6C171.494 122.457 171.643 122.276 171.748 122.069C171.853 121.863 171.911 121.635 171.92 121.404C171.928 121.172 171.885 120.942 171.795 120.728C171.704 120.514 171.569 120.323 171.397 120.167L168.262 117.338C167.993 117.094 167.829 116.756 167.805 116.394C167.782 116.032 167.9 115.675 168.134 115.398C168.371 115.126 168.703 114.955 169.063 114.922C169.422 114.887 169.78 114.993 170.064 115.215L173.601 118.044C173.761 118.171 173.894 118.329 173.993 118.508C174.091 118.687 174.153 118.884 174.175 119.087C174.196 119.291 174.177 119.496 174.118 119.692C174.06 119.888 173.962 120.07 173.832 120.228V120.234Z" fill="#FC9D9D"/>
<path d="M175.244 115.167L170.472 112.301C170.218 112.14 169.914 112.078 169.617 112.127C169.32 112.177 169.052 112.334 168.865 112.569C168.758 112.697 168.677 112.845 168.628 113.004C168.579 113.163 168.562 113.331 168.578 113.497C168.594 113.663 168.644 113.825 168.724 113.971C168.803 114.118 168.911 114.247 169.041 114.352L173.376 117.843C173.557 117.991 173.768 118.098 173.995 118.158C174.221 118.217 174.458 118.227 174.689 118.188C174.919 118.148 175.139 118.059 175.333 117.927C175.526 117.795 175.689 117.624 175.811 117.424C175.924 117.239 175.999 117.033 176.032 116.819C176.064 116.605 176.054 116.386 176.001 116.177C175.949 115.966 175.854 115.769 175.725 115.596C175.594 115.422 175.431 115.276 175.244 115.167Z" fill="#FC9D9D"/>
<path d="M175.171 113.871L169.833 111.888C169.556 111.787 169.327 111.586 169.19 111.325C169.054 111.063 169.021 110.761 169.096 110.476C169.182 110.173 169.382 109.914 169.654 109.756C169.927 109.597 170.251 109.55 170.557 109.625L176.036 111.103C176.221 111.152 176.396 111.238 176.548 111.355C176.7 111.473 176.827 111.619 176.922 111.787C177.017 111.953 177.077 112.138 177.099 112.329C177.122 112.52 177.106 112.713 177.052 112.898C176.999 113.089 176.907 113.268 176.783 113.423C176.657 113.577 176.501 113.704 176.325 113.795C176.148 113.887 175.954 113.94 175.756 113.954C175.557 113.966 175.358 113.938 175.171 113.871Z" fill="#FC9D9D"/>
<path opacity="0.15" d="M173.485 114.066L170.49 112.241C170.262 112.096 169.992 112.031 169.724 112.056C169.455 112.082 169.202 112.196 169.005 112.38C168.868 112.495 168.758 112.637 168.682 112.799C168.607 112.96 168.568 113.136 168.568 113.314C168.568 113.492 168.607 113.668 168.682 113.83C168.758 113.991 168.868 114.134 169.005 114.248L171.087 116.006L169.991 115.124C169.739 114.901 169.414 114.777 169.078 114.777C168.741 114.777 168.416 114.901 168.165 115.124C168.024 115.247 167.91 115.397 167.829 115.566C167.748 115.735 167.703 115.918 167.695 116.105C167.688 116.291 167.719 116.478 167.786 116.652C167.853 116.827 167.955 116.986 168.086 117.119L168.573 117.649C168.299 117.379 167.931 117.228 167.547 117.228C167.163 117.228 166.794 117.379 166.521 117.649C166.384 117.783 166.276 117.944 166.201 118.121C166.127 118.298 166.089 118.488 166.089 118.68C166.089 118.871 166.127 119.062 166.201 119.239C166.276 119.416 166.384 119.576 166.521 119.711L167.051 120.24L169.187 122.509L166.144 120.861C165.688 120.616 165.343 120.206 165.178 119.716C165.013 119.225 165.04 118.691 165.255 118.22L168.907 110.312C169.047 110.007 169.291 109.762 169.596 109.622C169.901 109.481 170.246 109.454 170.569 109.546H170.502C170.234 109.489 169.955 109.529 169.713 109.656C169.47 109.784 169.28 109.992 169.175 110.245C169.056 110.543 169.061 110.875 169.186 111.17C169.311 111.466 169.548 111.699 169.845 111.821L173.863 113.421L173.485 114.066Z" fill="black"/>
<g opacity="0.15">
<path opacity="0.15" d="M163.246 117.6C163.169 117.6 163.093 117.581 163.025 117.545C162.957 117.509 162.9 117.457 162.856 117.393C162.786 117.29 162.759 117.163 162.782 117.04C162.805 116.916 162.875 116.807 162.978 116.736C163.71 116.26 164.299 115.593 164.68 114.807C165.061 114.021 165.22 113.146 165.139 112.277C165.133 112.16 165.171 112.046 165.244 111.955C165.318 111.864 165.422 111.804 165.537 111.785C165.652 111.766 165.771 111.79 165.869 111.853C165.967 111.916 166.039 112.012 166.071 112.125C166.187 113.172 166.009 114.23 165.558 115.182C165.106 116.135 164.398 116.942 163.514 117.515C163.435 117.568 163.342 117.598 163.246 117.6Z" fill="black"/>
</g>
<path opacity="0.3" d="M46.5851 17.7116C44.7588 19.0439 40.0897 30.7604 45.6172 38.5166C45.3682 37.5597 45.3244 36.5615 45.4881 35.5869C45.6513 34.6117 46.0189 33.6822 46.5668 32.8591C46.5668 32.8591 42.75 27.8404 46.5851 17.7116Z" fill="black"/>
<path opacity="0.2" d="M20.6401 136.507L8.58691 143.199C8.49621 143.248 8.42072 143.321 8.36776 143.41C8.3154 143.499 8.28801 143.6 8.28861 143.704C8.29531 143.802 8.32635 143.896 8.37749 143.98C8.42923 144.063 8.49985 144.133 8.58446 144.183C8.66847 144.233 8.76345 144.262 8.86145 144.268C8.95946 144.273 9.05747 144.255 9.14695 144.215L26.3807 134.84L29.5157 113.39C29.5273 113.322 29.5133 113.252 29.4756 113.194C29.4378 113.137 29.38 113.095 29.313 113.078C29.2461 113.061 29.1748 113.07 29.1146 113.103C29.0537 113.137 29.008 113.191 28.9861 113.256L20.6401 136.507Z" fill="black"/>
<path d="M51.9969 43.3103C51.9969 43.3103 45.9094 43.1035 45.3006 36.8985C44.6919 30.6935 52.2221 30.3528 52.6056 36.6308L52.4961 43.3833L51.9969 43.3103Z" fill="#FC9D9D"/>
<path opacity="0.2" d="M47.5104 33.8872C47.7843 33.7133 48.0911 33.5983 48.4119 33.549C48.7321 33.4997 49.0596 33.5174 49.3731 33.6013C49.6775 33.7169 49.9527 33.897 50.181 34.1294C50.4086 34.3611 50.584 34.6397 50.6941 34.9457C51.0484 35.7159 51.1872 36.5669 51.0959 37.4095L51.029 38.0482C50.9924 38.5166 50.1706 38.5896 50.2193 38.0056V37.3C50.2771 36.6083 50.173 35.9124 49.9149 35.2681C49.7597 34.8508 49.4474 34.5102 49.0444 34.3192C48.8295 34.2681 48.6067 34.2614 48.3888 34.2991C48.1709 34.3368 47.9633 34.4177 47.7782 34.5381C47.6814 34.5789 47.5737 34.5844 47.4733 34.5534C47.3728 34.5223 47.287 34.4566 47.2304 34.3678C47.2194 34.2687 47.2407 34.1683 47.2912 34.0813C47.3418 33.9949 47.4185 33.9268 47.5104 33.8872Z" fill="black"/>
<path d="M50.548 42.2032C51.2134 42.2032 51.7534 41.6532 51.7534 40.9743C51.7534 40.2954 51.2134 39.7455 50.548 39.7455C49.8821 39.7455 49.3427 40.2954 49.3427 40.9743C49.3427 41.6532 49.8821 42.2032 50.548 42.2032Z" fill="#FFDD00"/>
<path opacity="0.15" d="M50.895 42.0815C50.7197 42.062 50.5493 42.0079 50.3953 41.9221C50.2406 41.8363 50.1049 41.7208 49.9953 41.5821C49.8864 41.4434 49.8054 41.284 49.7585 41.1142C49.711 40.9439 49.6982 40.7663 49.7202 40.5911C49.7628 40.3508 49.865 40.1245 50.0184 39.9341C49.8504 40.0369 49.7061 40.1744 49.5953 40.3368C49.4839 40.4992 49.4085 40.6835 49.3732 40.877C49.3543 41.037 49.3677 41.1988 49.4127 41.3539C49.4572 41.5084 49.5321 41.6526 49.6325 41.7786C49.7336 41.9039 49.8583 42.0085 49.9996 42.0858C50.1414 42.1624 50.2967 42.2111 50.4568 42.2275C50.7106 42.2671 50.9705 42.2129 51.1873 42.0754C51.0716 42.0572 50.9437 42.0328 50.895 42.0815Z" fill="black"/>
<path d="M77.3817 30.3772C76.4656 30.469 75.5805 30.7604 74.7897 31.2313C73.9989 31.7021 73.3208 32.3409 72.8039 33.1025C71.5651 32.6682 70.2113 32.6895 68.9871 33.1633C68.4106 32.173 67.5657 31.3657 66.5503 30.834C65.5349 30.3024 64.3899 30.0681 63.2466 30.1582C61.995 30.2275 60.7928 30.6674 59.7926 31.4223C58.7924 32.1772 58.0406 33.2132 57.6321 34.3977C57.2237 35.5815 57.1774 36.8608 57.4994 38.0708C57.822 39.2813 58.4978 40.3684 59.4407 41.1933C60.3837 42.0182 61.5519 42.5438 62.7949 42.7026C64.038 42.8614 65.3005 42.646 66.4212 42.0845C67.5413 41.523 68.4691 40.641 69.0857 39.5502C69.7018 38.4601 69.9794 37.2106 69.882 35.9617C69.8089 35.2688 69.6348 34.5905 69.3645 33.9481C70.3495 33.6202 71.4112 33.5989 72.4083 33.8873C71.9182 34.922 71.7082 36.0675 71.7995 37.2088C71.8373 38.0331 72.0406 38.8415 72.3973 39.5861C72.754 40.3307 73.2569 40.9962 73.8754 41.5425C74.4944 42.0894 75.217 42.5061 75.9999 42.7683C76.7833 43.0311 77.6112 43.1333 78.4349 43.0694C79.2579 43.0062 80.0609 42.7781 80.7944 42.3985C81.5279 42.0189 82.1775 41.4963 82.7047 40.8612C83.2324 40.2261 83.6269 39.4912 83.8649 38.701C84.103 37.9102 84.1797 37.0804 84.0902 36.2598C83.9654 34.5966 83.1929 33.049 81.9382 31.9491C80.6842 30.8492 79.0479 30.2847 77.3817 30.3772ZM64.2876 41.8686C63.2022 41.9866 62.1064 41.7786 61.1403 41.27C60.1743 40.7614 59.3829 39.9761 58.866 39.0149C58.3498 38.0537 58.1331 36.96 58.2427 35.8747C58.3529 34.7894 58.7845 33.7613 59.4833 32.923C60.1816 32.0848 61.1148 31.4734 62.163 31.1686C63.2113 30.8638 64.3265 30.8791 65.3663 31.2124C66.406 31.5452 67.3222 32.1809 67.9979 33.038C68.673 33.8952 69.0772 34.9342 69.1575 36.0225C69.2811 37.4417 68.8392 38.8525 67.9267 39.9475C67.0148 41.0425 65.7066 41.7329 64.2876 41.8686ZM78.3375 42.1667C77.2521 42.2847 76.1564 42.0766 75.1903 41.5681C74.2242 41.0595 73.4328 40.2741 72.916 39.313C72.3998 38.3518 72.183 37.258 72.2926 36.1728C72.4028 35.0875 72.8344 34.0594 73.5332 33.2211C74.2315 32.3829 75.1647 31.7715 76.213 31.4667C77.2612 31.1619 78.3764 31.1771 79.4162 31.5105C80.4559 31.8433 81.3721 32.479 82.0478 33.3361C82.7229 34.1933 83.1271 35.2323 83.2075 36.3206C83.3329 37.7404 82.8909 39.1518 81.9784 40.2468C81.0659 41.3424 79.7571 42.0322 78.3375 42.1667Z" fill="white"/>
</svg>
